<?xml version="1.0" encoding="UTF-8"?>
<svg id="Capa_1" data-name="Capa 1" xmlns="http://www.w3.org/2000/svg" xmlns:xlink="http://www.w3.org/1999/xlink" viewBox="0 0 42.25 42.39">
  <defs>
    <style>
      .cls-1 {
        fill: #fff;
      }

      .cls-2 {
        fill: url(#Degradado_sin_nombre_116);
      }
    </style>
    <radialGradient id="Degradado_sin_nombre_116" data-name="Degradado sin nombre 116" cx="21.12" cy="21.19" fx="21.12" fy="21.19" r="21.16" gradientUnits="userSpaceOnUse">
      <stop offset="0" stop-color="#68b766"/>
      <stop offset="1" stop-color="#0da543"/>
    </radialGradient>
  </defs>
  <circle class="cls-1" cx="21.07" cy="21.56" r="15.4"/>
  <path class="cls-2" d="M21.12,0C9.46,0,0,9.49,0,21.19c0,4.23,1.25,8.16,3.37,11.46l-.03-.03-1.16,8.73,8.86-1.54c3,1.64,6.43,2.57,10.08,2.57,11.67,0,21.12-9.49,21.12-21.19S32.79,0,21.12,0Zm10.75,29.89l-1.07,1.31c-1.54,1.9-2.85,2.02-4.87,1.54-7.72-2.02-13.43-7.48-15.92-15.21-.83-2.97,.36-5.47,2.85-7.01,1.31-.83,2.14-.24,2.61,1.07l1.19,3.09s.83,1.66-1.31,3.33q-.36,.24-.24,.83c.48,1.43,2.38,5.7,8.44,9.03,.59,.36,.71,.36,1.31-.12,.48-.48,1.07-1.07,1.54-1.54,1.07-.95,1.66-1.31,2.61-.59,.71,.48,1.43,1.07,2.14,1.54,.71,.59,1.9,1.31,.71,2.73Z"/>
</svg>