<?xml version="1.0" encoding="UTF-8"?>
<svg id="Capa_1" data-name="Capa 1" xmlns="http://www.w3.org/2000/svg" viewBox="0 0 119.2 200">
  <defs>
    <style>
      .cls-1 {
        fill: #191919;
      }
    </style>
  </defs>
  <path class="cls-1" d="M79.6,171.7H40.2c-2.2,0-4-1.8-4-4h0c0-2.2,1.8-4,4-4h39.3c2.2,0,4,1.8,4,4h0c0,2.2-1.8,4-4,4h0Z"/>
  <path class="cls-1" d="M79.6,184.3H40.2c-2.2,0-4-1.8-4-4h0c0-2.2,1.8-4,4-4h39.3c2.2,0,4,1.8,4,4h0c0,2.2-1.8,4-4,4h0Z"/>
  <path class="cls-1" d="M50.4,189.1c-1,0-1.7,.9-1.5,1.8,1,5.2,5.5,9.1,11,9.1s10-3.9,11-9.1c.2-1-.6-1.8-1.5-1.8h-18.9Z"/>
  <path class="cls-1" d="M70.7,1c-6.7-1.3-13.9-1.3-20.6-.2C21,5.5,0,30.2,0,59.6s8.7,35.2,17.1,48.3c7.7,11.9,15,23.2,16.3,41,.4,5.5,5,9.7,10.5,9.7h31.6c5.5,0,10.1-4.3,10.5-9.7,1.3-17.8,8.6-29.1,16.3-41,8.4-13,17.1-26.5,17.1-48.3S98.8,6.3,70.7,1ZM33,96.2c-.7,.5-1.5,.7-2.3,.7-1.2,0-2.4-.6-3.1-1.6-21.5-29.6-5.7-57.4-5-58.5,1.1-1.8,3.5-2.5,5.3-1.4,1.8,1.1,2.5,3.5,1.4,5.3-.6,1-13.9,24.7,4.6,50,1.3,1.7,.9,4.2-.9,5.4Z"/>
</svg>