<?xml version="1.0" encoding="UTF-8"?>
<svg id="Capa_2" data-name="Capa 2" xmlns="http://www.w3.org/2000/svg" viewBox="0 0 25 25">
  <defs>
    <style>
      .cls-1 {
        fill: #fff;
      }
    </style>
  </defs>
  <path class="cls-1" d="M12.1,22.1c.4-.4,.6-.7,.6-1,0-.5-.3-.8-.8-.8s-.5,.1-1,.5c-.6,.6-.7,1.1-.3,1.6,.4,.4,.9,.3,1.5-.3h0Z"/>
  <path class="cls-1" d="M15,22.1c.1-.2,.3-.4,.3-.6s-.4-.7-.9-1.2c-.7-.8-.9-1-.8-1.3,0-.3,.1-.4,.4-.4,.3,0,.5,.1,1.3,.8,1,1,1.3,1.1,1.8,.6,.6-.5,.4-.9-1.1-2.5-.9-.9-1.4-1.5-1.4-1.7,0-.3,.3-.5,.6-.5s.8,.7,1.6,1.4c1.6,1.6,1.9,1.7,2.4,1.2,.6-.6,.2-1.1-2.5-3.8-1.2-1.2-1.4-1.6-1.1-1.9,.4-.4,.7-.1,2.6,1.9,2.2,2.2,2.4,2.4,3,1.8,.6-.6,.5-.7-3.2-4.4l-3.5-3.5h-1.3s-1.3,0-1.3,0l-.8,1.4c-.7,1.3-.9,1.5-1.4,1.7-1.4,.7-2.8-.2-2.8-1.8s.2-.9,1.2-2.7c.7-1.2,1.2-2.1,1.1-2.1-.1,0-1.5-.4-1.6-.4-.1,0-5.2,6.2-5.2,6.3s.5,.7,1.1,1.5l1.1,1.4,.5-.2c1.1-.5,2.4,0,2.8,1.1,0,.2,.2,.4,.3,.3,0,0,.3,0,.6,0,.7,.1,1.4,.8,1.6,1.5,.1,.4,.2,.5,.4,.5,.3,0,1,.4,1.3,.9,.1,.2,.3,.6,.3,.9,0,.6,0,.6,.6,.8,.3,.1,.6,.4,.8,.7,.3,.4,.3,.5,.2,1.3,0,.7,0,.9,.1,1,.4,.2,.9,.1,1.1-.2h0Z"/>
  <path class="cls-1" d="M10.1,20c1-1,1.1-1.3,.7-1.8-.5-.6-.9-.5-1.9,.6-1,1-1.1,1.4-.6,1.9,.5,.5,.8,.4,1.8-.7h0Z"/>
  <path class="cls-1" d="M7.9,18.2c.9-.8,1.2-1.3,1-1.8-.2-.4-.3-.5-.8-.5-.3,0-.6,.2-1.3,.9-1,1-1.1,1.4-.6,1.8,.4,.4,.9,.3,1.7-.4h0Z"/>
  <path class="cls-1" d="M5.5,16.4c.5-.3,1.1-1,1.1-1.4s-.5-.9-.9-.9-.5,.3-.9,.6c-.5,.5-.6,.7-.6,1,0,.4,0,.6,.4,.8,.3,.2,.4,.2,.8,0h0Z"/>
  <path class="cls-1" d="M22.2,11.8l.7-1.5-2.5-3.1-2.5-3.1h-1.8c-1.8,0-1.8,0-3.9,.6-1.1,.3-2.1,.6-2.2,.7,0,0-.6,1-1.2,2-1.2,2.1-1.2,2.4-.7,2.8,.3,.2,.4,.2,.7,0,.3-.1,.6-.5,1.3-1.8,.5-.9,1-1.6,1.1-1.7,0,0,.9,0,1.9,0h1.7c0,.1,3.2,3.4,3.2,3.4,1.8,1.8,3.3,3.2,3.3,3.1,0,0,.4-.8,.8-1.6h0Z"/>
  <path class="cls-1" d="M3.9,6.7c1.3-1.6,2.4-3,2.4-3,0,0-2-1.4-2.2-1.4S-.5,7.9-.5,8s1.7,1.6,1.9,1.6,1.2-1.3,2.5-2.9h0Z"/>
  <path class="cls-1" d="M25.4,7.9c.3-.2,.2-.2-1.8-2.9-1.2-1.6-2.1-2.6-2.3-2.6-.3,0-2.1,1.2-2.1,1.3s1,1.4,2.2,2.9l2.2,2.8,.7-.7c.4-.4,.9-.7,1-.9h0Z"/>
</svg>