<svg fill="#FFFFFF" id="Layer_1" data-name="Layer 1" xmlns="http://www.w3.org/2000/svg" viewBox="0 0 96 96"><path d="M59.47,33.13a1,1,0,0,1-.58-.19,1,1,0,0,1-.4-1l.31-1.78-1.3-1.27a1,1,0,0,1,.55-1.71l1.8-.26.8-1.62a1,1,0,0,1,1.79,0l.81,1.62L65,27.2a1,1,0,0,1,.81.68,1,1,0,0,1-.26,1L64.3,30.18,64.6,32A1,1,0,0,1,63.15,33l-1.6-.85L59.94,33A1.12,1.12,0,0,1,59.47,33.13ZM61.55,30a1,1,0,0,1,.46.12l.28.15,0-.31a1,1,0,0,1,.28-.89l.23-.22-.31,0a1,1,0,0,1-.76-.55L61.55,28l-.14.28a1,1,0,0,1-.76.55l-.31,0,.23.22a1,1,0,0,1,.29.89l-.06.31.28-.15A1,1,0,0,1,61.55,30Z"/><path d="M84.42,33.13A1.12,1.12,0,0,1,84,33l-1.6-.85L80.74,33A1,1,0,0,1,79.29,32l.31-1.78-1.3-1.27a1,1,0,0,1,.55-1.71l1.8-.26.8-1.62a1,1,0,0,1,1.79,0l.81,1.62,1.79.26a1,1,0,0,1,.81.68,1,1,0,0,1-.26,1L85.1,30.18,85.4,32a1,1,0,0,1-.4,1A1,1,0,0,1,84.42,33.13ZM82.35,30a.93.93,0,0,1,.46.12l.28.15L83,30a1,1,0,0,1,.28-.89l.23-.22-.31,0a1,1,0,0,1-.76-.55L82.35,28l-.14.28a1,1,0,0,1-.76.55l-.31,0,.23.22a1,1,0,0,1,.29.89l-.06.31.28-.15A1,1,0,0,1,82.35,30Z"/><path d="M74,33.13a1.12,1.12,0,0,1-.47-.11L72,32.17,70.34,33A1,1,0,0,1,68.89,32l.31-1.78-1.3-1.27a1,1,0,0,1,.55-1.71l1.8-.26.8-1.62a1,1,0,0,1,.9-.56h0a1,1,0,0,1,.89.56l.81,1.62,1.79.26a1,1,0,0,1,.81.68,1,1,0,0,1-.26,1L74.7,30.18,75,32a1,1,0,0,1-.4,1A1,1,0,0,1,74,33.13Zm-3.28-4.24.23.22a1,1,0,0,1,.29.89l-.06.31.28-.15a1,1,0,0,1,.93,0l.28.15,0-.31a1,1,0,0,1,.28-.89l.23-.22-.31,0a1,1,0,0,1-.76-.55L72,28l-.14.28a1,1,0,0,1-.76.55Z"/><path d="M61.89,43.42a.89.89,0,0,1-.32-.05,1,1,0,0,1-.68-.95V38H59a9.1,9.1,0,1,1,0-18.19H84.9A9.1,9.1,0,1,1,84.9,38H66.5l-3.81,5A1,1,0,0,1,61.89,43.42ZM59,21.85A7.1,7.1,0,1,0,59,36h2.9a1,1,0,0,1,1,1v2.43l2.32-3A1,1,0,0,1,66,36H84.9a7.1,7.1,0,1,0,0-14.19Z"/><path d="M34.5,60.64H32.57a6,6,0,0,1-4.3-1.84l-5-5.24a6,6,0,0,1-1.61-3.68l-.75-10.73a6.63,6.63,0,0,1,1.2-3.85l-.51-3.2a1,1,0,0,1,.34-.91c3.54-3.06,5.25-3,11.61-2.78,5.67.2,7.73-2.39,7.81-2.5a1,1,0,0,1,.57-.37,2.39,2.39,0,0,1,2,.61c1.36,1.21,1.8,3.87,1.34,8.12a9.42,9.42,0,0,1,.82,4.86v0l-.75,10.73a6,6,0,0,1-1.61,3.68l-5,5.24A6,6,0,0,1,34.5,60.64ZM23.69,32.34l.49,3.07a1,1,0,0,1-.27.86,4.27,4.27,0,0,0-1,2.81l.74,10.66a4,4,0,0,0,1.07,2.44l5,5.24a3.94,3.94,0,0,0,2.85,1.22H34.5a3.94,3.94,0,0,0,2.85-1.22l5-5.24a3.92,3.92,0,0,0,1.07-2.44L44.14,39a6.88,6.88,0,0,0-.67-4,1.05,1.05,0,0,1-.17-.69c.57-4.87-.23-6.29-.6-6.68a.58.58,0,0,0-.13-.11c-1,1-3.7,3-9.07,2.83C27.37,30.2,26.21,30.25,23.69,32.34Zm21.45,6.74h0Z"/><path d="M45.78,48.41A2.93,2.93,0,0,1,44,47.7a1,1,0,0,1,1.21-1.59c.39.3.57.3.58.3h0a2.87,2.87,0,0,0,.39-1.51,12.53,12.53,0,0,1,.92-3.23c.34-.9,1-2.78.81-3.19-.62-.32-1.63,1-1.92,1.5a1,1,0,0,1-1.74-1c.77-1.35,2.6-3.34,4.62-2.25,1.84,1,.92,3.45.1,5.63A11.67,11.67,0,0,0,48.17,45c-.06,1-.34,2.65-1.59,3.22A1.86,1.86,0,0,1,45.78,48.41Z"/><path d="M21.31,48.41a1.86,1.86,0,0,1-.8-.17C19.27,47.67,19,46,18.92,45a11.67,11.67,0,0,0-.79-2.65c-.82-2.18-1.74-4.64.1-5.63,2-1.09,3.85.9,4.62,2.25a1,1,0,0,1-1.74,1h0c-.29-.51-1.3-1.82-1.93-1.48-.22.39.48,2.27.82,3.17a12.53,12.53,0,0,1,.92,3.23,2.54,2.54,0,0,0,.42,1.52,1.78,1.78,0,0,0,.55-.31A1,1,0,0,1,23.1,47.7,2.93,2.93,0,0,1,21.31,48.41Z"/><path d="M20.33,38.71a1,1,0,0,1-1-.73C16.58,27.77,20.14,20.44,30,16.21a8.83,8.83,0,0,1,8.51.92c5.73.74,7.2,4,7.57,5.47a3.05,3.05,0,0,1,1.09.76c1,1,1.38,2.68,1.24,4.95a16.41,16.41,0,0,0,.29,4.4,10.62,10.62,0,0,1-.07,5,1,1,0,1,1-1.95-.46,8.56,8.56,0,0,0,0-4.15,18.46,18.46,0,0,1-.32-4.87c.18-2.88-.73-3.73-1.24-3.78a1,1,0,0,1-1-.95c0-.14-.33-3.71-6.19-4.37a1,1,0,0,1-.52-.22,6.87,6.87,0,0,0-6.71-.82c-5.66,2.44-12.8,7.11-9.45,19.4a1,1,0,0,1-.7,1.23Z"/><path d="M33.55,69.28a1,1,0,0,1-.54-.16L28.07,66A6.59,6.59,0,0,1,25,60.41V54.93a1,1,0,0,1,2,0v5.48a4.58,4.58,0,0,0,2.14,3.89l4.41,2.79L38,64.3a4.58,4.58,0,0,0,2.14-3.89V54.93a1,1,0,0,1,2,0v5.48A6.57,6.57,0,0,1,39,66l-4.94,3.13A.94.94,0,0,1,33.55,69.28Z"/><path d="M38.85,73.82a1,1,0,0,1-.66-.24L32.89,69a1,1,0,0,1,1.31-1.52l4.46,3.83c1.82-2.67,4.18-6.69,4.2-8.45,0-2.75-2.39-4.86-2.42-4.88a1,1,0,0,1,1.3-1.53c.13.11,3.17,2.74,3.12,6.44,0,3.25-4.68,9.75-5.2,10.48a1,1,0,0,1-.7.41Z"/><path d="M28.25,73.82h-.12a1,1,0,0,1-.69-.41c-.53-.73-5.16-7.23-5.21-10.48,0-3.7,3-6.33,3.12-6.44a1,1,0,0,1,1.41.12A1,1,0,0,1,26.65,58h0s-2.45,2.13-2.42,4.88c0,1.76,2.38,5.78,4.2,8.45l4.46-3.83A1,1,0,0,1,34.2,69l-5.3,4.54A1,1,0,0,1,28.25,73.82Z"/><path d="M64.09,80.5H3a1,1,0,0,1-1-1c0-11.33,7.91-14,14.27-16.19,2.68-.91,5.2-1.77,6.6-3.14a1,1,0,0,1,1.41,0,1,1,0,0,1,0,1.42c-1.73,1.68-4.46,2.61-7.35,3.59C11.07,67.2,4.47,69.44,4,78.5H63.07c-.45-9.06-7-11.3-12.9-13.3-2.89-1-5.62-1.91-7.34-3.59a1,1,0,0,1,1.39-1.44c1.4,1.37,3.93,2.23,6.6,3.14,6.36,2.17,14.27,4.86,14.27,16.19A1,1,0,0,1,64.09,80.5Z"/><path d="M33.68,80.5a1,1,0,0,1-1-1V68.28a1,1,0,0,1,2,0V79.5A1,1,0,0,1,33.68,80.5Z"/></svg>