<?xml version="1.0" encoding="UTF-8"?>
<svg id="Capa_1" data-name="Capa 1" xmlns="http://www.w3.org/2000/svg" viewBox="0 0 25 24.94">
  <defs>
    <style>
      .cls-1 {
        fill: #fff;
      }
    </style>
  </defs>
  <path class="cls-1" d="M18.26,0H6.74C3.04,0,0,3.04,0,6.74v11.46c0,3.7,3.04,6.74,6.74,6.74h11.52c3.7,0,6.74-3.04,6.74-6.74V6.74c0-3.7-3.04-6.74-6.74-6.74Zm4.59,18.14c0,2.57-2.09,4.65-4.65,4.65H6.8c-2.57,0-4.65-2.09-4.65-4.65V6.8c0-2.57,2.09-4.65,4.65-4.65h11.4c2.57,0,4.65,2.09,4.65,4.65v11.34Z"/>
  <path class="cls-1" d="M19.21,4.36c-.83,0-1.43,.66-1.43,1.43s.6,1.43,1.43,1.43c.78,0,1.43-.66,1.43-1.43s-.66-1.43-1.43-1.43Z"/>
  <path class="cls-1" d="M12.53,5.67h-.06c-3.7,0-6.74,3.1-6.74,6.8s3.04,6.8,6.74,6.8h.06c3.7,0,6.8-3.04,6.8-6.8s-3.1-6.8-6.8-6.8Zm0,11.34h-.06c-2.45,0-4.47-2.03-4.47-4.53s2.03-4.47,4.47-4.47h.06c2.45,0,4.48,2.03,4.48,4.47s-2.03,4.53-4.48,4.53Z"/>
</svg>