<?xml version="1.0" encoding="UTF-8"?>
<svg id="Capa_1" data-name="Capa 1" xmlns="http://www.w3.org/2000/svg" viewBox="0 0 1034.2 117.1">
  <defs>
    <style>
      .cls-1 {
        fill: #fff;
      }
    </style>
  </defs>
  <polygon class="cls-1" points="734.6 70.6 678.3 1.9 656.6 1.9 656.6 115.1 682.5 115.1 682.5 46.5 738.8 115.1 760.4 115.1 760.4 1.9 734.6 1.9 734.6 70.6"/>
  <path class="cls-1" d="M886.4,16.5c-5.6-5.3-12.2-9.4-19.6-12.2-7.5-2.9-15.7-4.3-24.7-4.3s-17.2,1.5-24.7,4.4c-7.5,2.9-14,7-19.6,12.3-5.6,5.3-9.9,11.5-13,18.5-3.1,7.1-4.6,14.9-4.6,23.4s1.5,16.2,4.6,23.3,7.4,13.3,13,18.6c5.6,5.3,12.2,9.4,19.7,12.3,7.5,2.9,15.8,4.4,24.7,4.4s17-1.4,24.5-4.3c7.5-2.9,14-6.9,19.6-12.2,5.6-5.3,9.9-11.5,13-18.7,3.1-7.2,4.6-15,4.6-23.4s-1.5-16.3-4.6-23.5c-3.1-7.1-7.4-13.3-13-18.6Zm-11.6,56.7c-1.8,4.4-4.3,8.2-7.5,11.5-3.2,3.3-7,5.8-11.2,7.6-4.3,1.8-8.9,2.7-14,2.7s-9.8-.9-14.1-2.7-8.1-4.3-11.2-7.6c-3.2-3.3-5.7-7.1-7.4-11.5-1.8-4.4-2.7-9.2-2.7-14.6s.9-10.3,2.7-14.6,4.3-8.2,7.4-11.5c3.2-3.3,6.9-5.8,11.2-7.6s9-2.7,14.1-2.7,9.7,.9,14,2.7c4.3,1.8,8,4.3,11.2,7.6,3.2,3.3,5.7,7.1,7.5,11.5s2.7,9.2,2.7,14.6-.9,10.3-2.7,14.6Z"/>
  <path class="cls-1" d="M983.5,1.9h-25.9l-50.3,113.2h26.8l10.1-24.3h52.4l10.1,24.3h27.5L983.5,1.9Zm-31,69.1l17.9-43.2,17.9,43.2h-35.9Z"/>
  <path class="cls-1" d="M86.1,40.2h0s0-.8,0-.8c0-10.8-3.3-19.9-9.9-26.1-7.5-7-18.6-10.8-31.9-10.8H0V114.7H25.3v-36.4h14.5l21.5,36.4h28.6l-24.8-41.4c9.5-4.6,21.1-13.7,21.1-33.1Zm-43.9,17H25.3V24.5h17c12,0,18.6,5.4,18.6,16.1s-7,16.6-18.6,16.6Z"/>
  <polygon class="cls-1" points="613.7 2.9 585.9 2.9 566.1 38.5 546.6 2.9 517.6 2.9 550.7 58 516 115.2 543.7 115.2 564.8 77.5 585.9 115.2 614.5 115.2 580.1 57.6 613.7 2.9"/>
  <polygon class="cls-1" points="327.9 39 302.3 2.5 301.9 2.5 276.2 51.4 276.2 114.7 300.6 114.7 300.6 45.2 327.1 79.5 327.1 80 328.4 80 355.3 45.2 355.3 114.7 379.7 114.7 379.7 2.5 353.2 2.5 327.9 39"/>
  <path class="cls-1" d="M441,2.1l-42.2,112.6h25.3l8.7-24h39.3l8.7,24h26.1L464.6,2.1h-23.6Zm-.8,67.5l12-34.4,12,34.4h-24Z"/>
  <polygon class="cls-1" points="137.9 24.5 188.8 24.5 188.8 2.5 113 2.5 113 114.7 160.2 114.7 171.8 93.2 137.9 93.2 137.9 69.2 183 69.2 183 47.7 137.9 47.7 137.9 24.5"/>
  <polygon class="cls-1" points="186 114.7 216.6 114.7 275.8 2.5 245.2 2.5 186 114.7"/>
</svg>