<?xml version="1.0" encoding="UTF-8"?>
<svg id="Capa_1" data-name="Capa 1" xmlns="http://www.w3.org/2000/svg" xmlns:xlink="http://www.w3.org/1999/xlink" viewBox="0 0 2494.7 757">
  <defs>
    <style>
      .cls-1 {
        fill: url(#Degradado_sin_nombre_6-2);
      }

      .cls-2 {
        fill: #fff;
      }

      .cls-3 {
        fill: url(#Degradado_sin_nombre_6);
      }

      .cls-4 {
        fill: #dc1c2e;
      }

      .cls-5 {
        clip-path: url(#clippath-2);
      }

      .cls-6 {
        fill: #c9c9c9;
      }

      .cls-7 {
        clip-path: url(#clippath-1);
      }

      .cls-8 {
        fill: #d80c21;
      }

      .cls-9 {
        fill: url(#Degradado_sin_nombre_6-6);
      }

      .cls-10 {
        fill: #a61218;
      }

      .cls-11 {
        fill: #033a7e;
      }

      .cls-12 {
        fill: #024490;
      }

      .cls-13 {
        fill: #c40e1d;
      }

      .cls-14 {
        clip-path: url(#clippath);
      }

      .cls-15 {
        fill: none;
      }

      .cls-16 {
        fill: url(#Degradado_sin_nombre_6-3);
      }

      .cls-17 {
        clip-path: url(#clippath-3);
      }

      .cls-18 {
        fill: url(#Degradado_sin_nombre_6-4);
      }

      .cls-19 {
        fill: url(#Degradado_sin_nombre_7);
      }

      .cls-20 {
        fill: url(#Degradado_sin_nombre_6-5);
      }

      .cls-21 {
        fill: #003da5;
      }

      .cls-22 {
        fill: #04326c;
      }
    </style>
    <clipPath id="clippath">
      <path class="cls-15" d="M145.5,190.5v4s-1-1.1-1-1.1c-22.7,77.3-6.5,158.8,11.8,206.3,0,0,0,0,0,0,.9,2.4,.9,2.3,1.8,4.6,10.2,25.7,37.2,62.8,70.3,102.3,39.4,47.3,86.8,97.2,123.4,134,13.6,13.8,26,26.1,36.5,36.3,.9,.8,1.7,1.6,2.5,2.4h19.1c-109-237.3-61.8-561.3-48.1-639.3-152.1,25.3-216.2,150.4-216.2,150.4"/>
    </clipPath>
    <linearGradient id="Degradado_sin_nombre_6" data-name="Degradado sin nombre 6" x1="1020.2" y1="-47" x2="1021.7" y2="-47" gradientTransform="translate(188304.7 -8289.4) rotate(-180) scale(184.2)" gradientUnits="userSpaceOnUse">
      <stop offset="0" stop-color="#fff"/>
      <stop offset=".7" stop-color="#fdfdfe"/>
      <stop offset=".9" stop-color="#f6f8fc"/>
      <stop offset="1" stop-color="#f1f5fb"/>
    </linearGradient>
    <clipPath id="clippath-1">
      <path class="cls-15" d="M444.8,679.4h18.7c0,0,.4,0,.4,0,11-10.7,24.3-23.9,39-38.8,36.6-36.8,84-86.7,123.4-134,33-39.5,60-76.6,70.3-102.3,.9-2.2,.9-2.2,1.8-4.6,0,0,0,0,0,0,18.3-47.5,34.6-129,11.8-206.3l-1,1.1v-4s-64.2-125.1-216.2-150.4c13.7,78,60.9,402-48.1,639.4"/>
    </clipPath>
    <linearGradient id="Degradado_sin_nombre_6-2" data-name="Degradado sin nombre 6" x1="1009.3" y1="-47" x2="1010.8" y2="-47" gradientTransform="translate(-185433.9 -8289.4) scale(184.2 -184.2)" xlink:href="#Degradado_sin_nombre_6"/>
    <clipPath id="clippath-2">
      <path class="cls-15" d="M612.5,408.4c-47.5,118.4-127.2,241.4-144.1,267,35-34.1,89.7-89.2,137.4-143.4,7.4-8.5,14.7-17,21.7-25.4,31.5-37.6,57.5-73.1,68.7-98.6,.3-.6,.5-1.3,.8-1.9,.4-1,.6-1.5,.8-2-.1,.3-.2,.5,.2-.6,0,0,.5-.9,1.6-3.9,18.3-47.5,34.6-129,11.8-206.3l-1-2.9s-33.2-64.7-108.4-110.4c15.6,56.5,54,219.9,10.5,328.4"/>
    </clipPath>
    <linearGradient id="Degradado_sin_nombre_7" data-name="Degradado sin nombre 7" x1="1019.3" y1="-45.3" x2="1020.8" y2="-45.3" gradientTransform="translate(230653 -9847.8) rotate(-180) scale(225.6)" gradientUnits="userSpaceOnUse">
      <stop offset="0" stop-color="#f1f5fb"/>
      <stop offset="0" stop-color="#f6f8fc"/>
      <stop offset=".3" stop-color="#fdfdfe"/>
      <stop offset="1" stop-color="#fff"/>
    </linearGradient>
    <clipPath id="clippath-3">
      <path class="cls-15" d="M144.9,190.5l-1,2.9c-22.7,77.3-6.5,158.8,11.8,206.3,0,0,0,0,0,0,.9,2.4,.9,2.3,1.8,4.6,10.2,25.7,37.2,62.8,70.3,102.3,10.5,12.7,21.6,25.5,33,38.2,44.9,50,94,99.5,126.3,130.8h0c-16.6-25-96.6-148.4-144.3-267.2-43.5-108.5-5.1-271.8,10.5-328.4-75.2,45.8-108.3,110.4-108.3,110.4"/>
    </clipPath>
    <linearGradient id="Degradado_sin_nombre_6-3" data-name="Degradado sin nombre 6" x1="1024.9" y1="-47.3" x2="1026.4" y2="-47.3" gradientTransform="translate(118283.9 -5063.2) rotate(180) scale(115.1)" xlink:href="#Degradado_sin_nombre_6"/>
    <linearGradient id="Degradado_sin_nombre_6-4" data-name="Degradado sin nombre 6" x1="427.8" y1="735.8" x2="460.5" y2="735.8" gradientTransform="matrix(1, 0, 0, 1, 0, 0)" xlink:href="#Degradado_sin_nombre_6"/>
    <linearGradient id="Degradado_sin_nombre_6-5" data-name="Degradado sin nombre 6" x1="392.6" y1="713.8" x2="463.9" y2="713.8" gradientTransform="matrix(1, 0, 0, 1, 0, 0)" xlink:href="#Degradado_sin_nombre_6"/>
    <linearGradient id="Degradado_sin_nombre_6-6" data-name="Degradado sin nombre 6" x1="482" y1="733.6" x2="526.7" y2="733.6" gradientTransform="matrix(1, 0, 0, 1, 0, 0)" xlink:href="#Degradado_sin_nombre_6"/>
  </defs>
  <g>
    <path class="cls-2" d="M156.3,399.8c.9,2.4,.9,2.3,1.8,4.6,10.2,25.7,37.2,62.8,70.3,102.3,39.4,47.3,86.8,97.2,123.4,134,13.6,13.8,26,26.1,36.5,36.4,0,0,0,0,.1,.1,.8,.8,1.6,1.5,2.3,2.3h35.7c0,.1,0,.1,0,.1h33.5c0,.1,2.2,.1,2.2,.1,57.4-55.1,178.5-177,222.6-250.1,2.4-4,4.5-7.8,6.4-11.5,.2-.4,.4-.8,.6-1.1,.3-.6,.6-1.2,.9-1.8,.3-.5,.5-1,.8-1.5,.2-.5,.5-1,.7-1.5,.3-.6,.6-1.2,.9-1.9,.2-.4,.3-.8,.5-1.1,.4-1,.9-2,1.2-3,.1-.3,.2-.5,.3-.7,.3-.8,.5-1.2,.7-1.8,.4-1.2,.7-2.1,.6-2.2,18.9-48.2,36-131.5,12.1-210,0,0-57.4-155.7-282-155.7C228.3,29,145.5,190.5,145.5,190.5v4s-1-1.1-1-1.1c-22.7,77.3-6.5,158.8,11.8,206.3,0,0,0,0,0,0"/>
    <g class="cls-14">
      <rect class="cls-3" x="121.8" y="40.1" width="288.1" height="639.4"/>
    </g>
    <g class="cls-7">
      <rect class="cls-1" x="444.8" y="40.1" width="288.1" height="639.4"/>
    </g>
    <g class="cls-5">
      <rect class="cls-19" x="409.4" y="58.9" width="383.6" height="637.5" transform="translate(-65.4 133.3) rotate(-12)"/>
    </g>
    <g class="cls-17">
      <rect class="cls-16" x="62.1" y="58.9" width="383.8" height="637.8" transform="translate(-73 61.1) rotate(-12)"/>
    </g>
    <path class="cls-8" d="M427.5,0c-7-.2-42.8-.5-63.8,17.3,0,0-58.6-9.5-105,35.2-11.1,0-56.1,25.6-91.7,86.8-9.7,16.9-17.3,34.4-22.4,52.2,7-9.3,34.1-46.3,91.2-41.1,4-3.1,39.6-41.9,113.6-28.4,10.1-10.6,47.2-21.9,78.2-22.3,30.9,.4,68.1,11.7,78.2,22.3,74-13.5,109.6,25.3,113.6,28.4,57.2-5.2,84.3,31.8,91.4,41.1-5.1-17.8-12.9-35.3-22.5-52.2-35.6-61.2-80.7-86.9-91.7-86.8-46.4-44.7-105-35.2-105-35.2C470.4-.4,434.5-.2,427.5,0"/>
    <path class="cls-13" d="M363.7,17.3s-58.6-9.6-105,35.2c-11.1,0-56.1,25.6-91.7,86.8-9.7,16.9-17.3,34.4-22.4,52.2,7-9.3,34.1-46.3,91.2-41.1,4-3.1,39.5-41.7,113.2-28.5,7.1-59.4,14.7-104.6,14.7-104.6"/>
    <path class="cls-10" d="M235.7,150.4s0,0,.1,0c10.6-55.6,22.8-97.8,22.8-97.8-11.1,0-56.1,25.6-91.7,86.8-9.7,16.9-17.3,34.4-22.4,52.2,7-9.3,34.1-46.3,91.2-41.1"/>
    <path class="cls-13" d="M491.4,17.3s58.6-9.6,105,35.2c11.1,0,56.1,25.6,91.7,86.8,9.7,16.9,17.5,34.4,22.5,52.2-7-9.3-34.2-46.3-91.4-41.1-4-3.1-39.5-41.7-113.2-28.5-7.1-59.4-14.7-104.6-14.7-104.6"/>
    <path class="cls-10" d="M619.4,150.4s0,0-.1,0c-10.6-55.6-22.8-97.8-22.8-97.8,11.1,0,56.1,25.6,91.7,86.8,9.7,16.9,17.5,34.4,22.5,52.2-7-9.3-34.2-46.3-91.4-41.1"/>
    <polygon class="cls-6" points="428.5 714.5 427.8 714.5 395.9 714.5 396.3 715.5 407.9 757 428.5 757 428.5 714.5"/>
    <polygon class="cls-18" points="427.8 714.5 428.6 714.5 460.5 714.5 460.1 715.5 448.5 757 427.8 757 427.8 714.5"/>
    <path class="cls-20" d="M463.8,716.2h-71.1c0,0-.1,0-.1-.1v-4.5c0,0,0-.1,.1-.1h71.1c0,0,.1,0,.1,.1v4.5c0,0,0,.1-.1,.1"/>
    <polygon class="cls-6" points="459.6 717.4 459.9 716.2 396.4 716.2 396.8 717.4 459.6 717.4"/>
    <path class="cls-12" d="M623.8,368.9c-.9,0-37-37.8-109-31.2-4-2.4-30.7-16.5-87.3-19.6-52.1,1.1-83.3,17.2-87.3,19.6-72-6.6-108.1,31.2-109,31.2-43.3-1.2-72.3,29.2-74.9,32.7,.9,2.4,.9,2.3,1.8,4.6,27.1,67.4,169.9,212.5,233.7,274.2h71.5c63.8-61.7,206.6-206.8,233.7-274.2,.9-2.2,.9-2.2,1.8-4.6-2.6-3.5-31.6-33.9-74.9-32.7"/>
    <path class="cls-11" d="M514.8,337.7c72-6.6,108.1,31.2,109,31.2,43.3-1.2,72.3,29.2,74.9,32.7-.9,2.4-.9,2.3-1.8,4.6-27.1,67.4-169.9,212.5-233.7,274.2h-19.6c49.6-106.6,67.6-231,71.2-342.6h0Z"/>
    <path class="cls-22" d="M623.8,368.9h0c43.3-1.2,72.3,29.2,74.9,32.7-.9,2.4-.9,2.3-1.8,4.6-27.1,67.4-169.9,212.5-233.7,274.2,0,0,94.5-138.5,148.3-271.3,5.2-12.7,9.2-26.2,12.2-40.2"/>
    <path class="cls-11" d="M340.2,337.7c-72-6.6-108.1,31.2-109,31.2-43.3-1.2-72.3,29.2-74.9,32.7,.9,2.4,.9,2.3,1.8,4.6,27.1,67.4,169.9,212.5,233.7,274.2h19.6c-49.6-106.6-67.6-231-71.2-342.6h0Z"/>
    <path class="cls-22" d="M231.2,368.9h0c-43.3-1.2-72.3,29.2-74.9,32.7,.9,2.4,.9,2.3,1.8,4.6,27.1,67.4,169.9,212.5,233.7,274.2,0,0-94.5-138.5-148.3-271.3-5.2-12.7-9.2-26.2-12.2-40.2"/>
    <path class="cls-12" d="M269.6,228.9c0-.2,0-.3,0-.5-.3-7.8-3-13.6-7.9-16.7-5.5-3.5-13.5-3.8-23.1-.6-10.5,3.5-20.9,7.3-31.1,11.4,1.5,26.8,2.9,53.6,4.4,80.3,6.9-2.7,10.3-4,17.2-6.5-.5-10.5-.8-15.7-1.3-26.2,4-1.4,6-2.1,10-3.5,6.5,8.5,9.7,12.7,16.2,21.4,8-2.5,12.1-3.7,20.1-5.9-6.2-8.3-12.5-16.6-18.8-24.8,8.9-6.7,14.7-16.9,14.2-28.3m-17.9,5.6s0,0,0,.1c.3,7.3-4.4,13.2-12.5,15.9-4.9,1.6-7.3,2.5-12.1,4.2-.5-9.4-.7-14-1.2-23.4,4.7-1.7,7.1-2.5,11.8-4.1,8.8-3,13.6-.3,14,7.3"/>
    <path class="cls-12" d="M528.4,186.9c-10.9,25.7-21.6,51.5-32.2,77.4,7.3,.8,10.9,1.2,18.2,2.3,2.6-6.6,3.9-10,6.5-16.6,11.4,1.7,17,2.7,28.3,5,2.3,7.5,3.4,11.2,5.7,18.7,7.4,1.6,11.1,2.4,18.4,4.2-9-29.4-18.2-58.7-27.7-87.9-6.9-1.3-10.3-1.9-17.2-3m15.8,51.6c-6.9-1.3-10.4-1.9-17.4-3,3.7-9.4,5.6-14,9.4-23.3,3.2,10.5,4.8,15.8,8,26.4"/>
    <path class="cls-12" d="M629.5,252.6c8.4-10.3,16.9-20.5,25.5-30.6-7.8-3.1-11.7-4.5-19.6-7.3-6.1,8.2-9.2,12.4-15.2,20.7-4.2-10-8.4-20-12.7-29.9-8.2-2.5-12.3-3.6-20.5-5.8,7.5,15.4,14.9,30.9,22.1,46.4-8.8,11.3-17.6,22.6-26.2,34.1,7.9,2.1,11.8,3.2,19.6,5.5,6.4-9.1,9.6-13.5,16-22.4,4.5,10.6,8.9,21.3,13.3,32,7.9,2.8,11.8,4.3,19.7,7.4-7.2-16.8-14.5-33.5-22-50.1"/>
    <path class="cls-12" d="M310.8,257.4c-.2-6.9-.3-10.3-.5-17.2,10.7-2.2,21.5-4.2,32.4-5.8-.1-6.3-.2-9.4-.3-15.7-10.9,1.6-21.7,3.5-32.5,5.8-.2-6.7-.3-10-.5-16.6,12.4-2.4,24.7-4.5,37.1-6.5-.1-6.3-.2-9.4-.3-15.7-18.6,2.8-37,6.3-55.3,10.5,.9,27,1.8,53.9,2.8,80.9,11.1-2.7,22.3-5,33.6-7,3.1-6.9,4.7-10.3,7.8-17.1-9.7,1.6-14.5,2.5-24.1,4.5"/>
    <path class="cls-12" d="M463.6,180.4c-6.3,8.5-12.6,17-18.8,25.6-6.2-8.9-12.5-17.7-18.9-26.4h-.2c-6.3,11.9-12.6,23.9-18.8,35.9,0,15.3,.2,30.5,.3,45.8,7.1-.3,10.6-.4,17.7-.5,0-16.8,0-33.5,0-50.3,6.5,8.3,12.9,16.6,19.2,25,0,0,0,0,.1,.2,.3,0,.5,0,.8,0,6.5-8.2,13-16.4,19.6-24.6-.1,16.8-.3,33.7-.4,50.5,7.1,.4,10.7,.6,17.7,1.2,.3-27,.7-54.1,1-81.1-7.7-.7-11.6-.9-19.3-1.3"/>
    <path class="cls-8" d="M365.6,264.5c13.8-28.5,27.9-56.8,42.5-84.9-9,.3-13.5,.6-22.5,1.3-14.4,28.6-28.3,57.5-41.9,86.5,8.7-1.3,13.1-1.9,21.9-2.8"/>
    <path class="cls-9" d="M504.5,711.5c12.4,0,22.2,9.8,22.2,22.1s-9.8,22.2-22.3,22.2-22.4-9.7-22.4-22.2,10-22.1,22.4-22.1h0Zm0,3.4c-9.9,0-18.1,8.4-18.1,18.7s8.1,18.8,18.2,18.8c10,0,18-8.3,18-18.7s-8-18.7-18-18.7h0Zm-4.2,31.5h-4v-24.6c2.1-.3,4.1-.6,7.1-.6s6.3,.8,7.8,1.9c1.5,1.1,2.3,2.7,2.3,5.1s-2.2,5.2-4.9,6v.2c2.2,.4,3.7,2.3,4.2,6,.6,3.8,1.2,5.3,1.6,6.1h-4.2c-.6-.8-1.2-3.1-1.7-6.3-.6-3.1-2.2-4.3-5.4-4.3h-2.8v10.6Zm0-13.7h2.9c3.3,0,6.1-1.2,6.1-4.2s-1.6-4.3-6.1-4.3-2.2,.1-2.9,.2v8.3Z"/>
  </g>
  <g>
    <path class="cls-4" d="M1052.3,186v-2.3c0-29.4-9-54.3-27.1-71.2-20.3-19.2-50.9-29.4-87-29.4h-121V389.5h69v-99.5h39.6l58.8,99.5h78l-67.8-113c26-12.4,57.7-37.3,57.7-90.4h0Zm-69,1.1c0,28.3-19.2,45.2-50.9,45.2h-46.3v-89.3h46.3c32.8,0,50.9,14.7,50.9,44.1ZM2021.1,82l-115.3,307.5h69l23.7-65.6h107.4l23.7,65.6h71.2l-115.3-307.5h-64.4Zm63.3,184.3h-65.6l32.8-93.8,32.8,93.8Zm316.5-32.8l91.6-149.2h-75.7l-54.3,97.2-53.1-97.2h-79.1l90.4,150.4-95,156h75.7l57.7-102.9,57.7,102.9h78l-93.8-157.1Zm-1207.3,97.2v-65.6h123.2v-58.8h-123.2v-63.3h139v-59.9h-206.9V389.5h128.9l31.7-58.8h-92.7ZM1781.4,83.2l-69,99.5-70.1-99.5h-1.1l-70.1,133.4v173h66.7V199.6l72.3,93.8v1.1h3.4l73.5-95v189.9h66.7V83.2h-72.3Z"/>
    <polygon class="cls-21" points="1486.5 83.1 1324.8 389.5 1408.5 389.5 1570.2 83.1 1486.5 83.1"/>
  </g>
  <g>
    <polygon class="cls-21" points="929.7 549.4 848.4 450.2 817.1 450.2 817.1 613.7 854.5 613.7 854.5 514.5 935.8 613.7 967.1 613.7 967.1 450.2 929.7 450.2 929.7 549.4"/>
    <path class="cls-21" d="M1149,471.2c-8.1-7.6-17.6-13.5-28.4-17.6-10.8-4.1-22.7-6.2-35.6-6.2s-24.8,2.1-35.6,6.3c-10.8,4.2-20.3,10.1-28.4,17.8-8.1,7.6-14.4,16.5-18.8,26.7s-6.7,21.4-6.7,33.7,2.2,23.4,6.7,33.6,10.7,19.2,18.8,26.9c8.1,7.6,17.6,13.5,28.5,17.8,10.9,4.2,22.8,6.3,35.7,6.3s24.6-2.1,35.4-6.2c10.8-4.1,20.3-10,28.4-17.6,8.1-7.6,14.4-16.6,18.8-27,4.4-10.4,6.7-21.6,6.7-33.8s-2.2-23.6-6.7-33.9c-4.4-10.3-10.7-19.2-18.8-26.9Zm-16.7,81.9c-2.6,6.3-6.2,11.8-10.9,16.6-4.7,4.7-10.1,8.4-16.2,11-6.2,2.6-12.9,3.9-20.2,3.9s-14.1-1.3-20.3-3.9c-6.2-2.6-11.6-6.2-16.2-11-4.6-4.7-8.2-10.3-10.7-16.6-2.6-6.3-3.9-13.4-3.9-21.1s1.3-14.8,3.9-21.1c2.6-6.3,6.1-11.8,10.7-16.6,4.6-4.7,10-8.4,16.2-11,6.2-2.6,13-3.9,20.3-3.9s14.1,1.3,20.2,3.9c6.2,2.6,11.6,6.2,16.2,11,4.7,4.8,8.3,10.3,10.9,16.6,2.6,6.3,3.9,13.4,3.9,21.1s-1.3,14.8-3.9,21.1Z"/>
    <path class="cls-21" d="M1289.2,450.2h-37.4l-72.6,163.5h38.8l14.6-35h75.7l14.6,35h39.7l-73.3-163.5Zm-44.7,99.7l25.9-62.3,25.9,62.3h-51.8Z"/>
  </g>
</svg>