<?xml version="1.0" standalone="no"?>
<!DOCTYPE svg PUBLIC "-//W3C//DTD SVG 20010904//EN"
 "http://www.w3.org/TR/2001/REC-SVG-20010904/DTD/svg10.dtd">
<svg version="1.0" xmlns="http://www.w3.org/2000/svg"
 width="199.000000pt" height="253.000000pt" viewBox="0 0 199.000000 253.000000"
 preserveAspectRatio="xMidYMid meet">

<g transform="translate(0.000000,253.000000) scale(0.100000,-0.100000)"
fill="#ffffff" stroke="none">
<path fill="#c60909" d="M909 2490 c-25 -4 -64 -17 -87 -29 -26 -13 -60 -21 -94 -21 -70 0
-148 -22 -204 -57 -25 -15 -63 -38 -86 -50 -145 -79 -258 -202 -329 -359 -38
-84 -37 -94 8 -50 50 48 111 75 186 82 41 4 74 14 97 30 81 54 129 68 242 70
74 2 114 7 130 18 39 25 142 46 226 46 77 0 199 -28 229 -52 6 -5 60 -10 120
-12 114 -2 161 -16 243 -70 23 -16 56 -26 98 -30 73 -7 132 -34 186 -85 35
-33 38 -34 31 -11 -43 148 -185 325 -324 405 -38 22 -90 53 -115 68 -56 35
-134 57 -202 57 -33 0 -71 9 -105 24 -61 28 -175 40 -250 26z"/>
<path fill="#c60909" d="M794 1775 c-35 -75 -64 -138 -64 -140 0 -3 14 -5 30 -5 29 0 33 7 95
131 36 72 65 135 65 140 0 5 -14 9 -31 9 -29 0 -33 -5 -95 -135z"/>
<path fill="#0920c6" d="M1088 1871 c-19 -23 -37 -41 -41 -41 -3 0 -15 16 -27 35 -12 19 -25
35 -28 35 -4 0 -19 -24 -34 -53 -23 -43 -28 -65 -28 -125 0 -70 1 -72 25 -72
24 0 25 2 25 75 0 43 4 75 10 75 5 0 20 -16 32 -35 13 -19 25 -35 28 -35 3 0
16 16 30 35 14 19 28 35 33 35 4 0 7 -36 7 -80 0 -79 0 -80 25 -80 l25 0 0
130 c0 72 -4 130 -9 130 -5 0 -16 3 -24 6 -9 3 -28 -10 -49 -35z"/>
<path  fill="#0920c6" d="M628 1872 l-78 -15 0 -52 c0 -29 3 -87 7 -129 l6 -78 36 7 c59 10 67
14 79 39 10 23 10 24 -29 19 -38 -5 -39 -5 -39 24 0 28 3 31 52 39 43 8 52 13
53 32 2 25 -8 27 -67 13 -37 -9 -38 -8 -38 20 0 26 3 29 60 40 53 10 60 14 60
35 0 27 1 27 -102 6z"/>
<path fill="#0920c6" d="M1277 1772 c-58 -137 -58 -136 -26 -140 19 -2 28 3 37 23 11 25 16
26 55 20 54 -9 54 -10 62 -44 5 -22 13 -30 36 -33 19 -3 28 -1 26 6 -2 6 -23
71 -46 144 -41 128 -43 132 -71 132 -26 0 -31 -7 -73 -108z m83 19 c0 -5 3
-23 6 -40 6 -27 4 -31 -14 -31 -29 0 -33 12 -19 49 11 29 27 42 27 22z"/>
<path  fill="#0920c6" d="M1555 1765 l34 -74 -41 -51 c-22 -28 -39 -53 -37 -55 2 -2 16 -6 30
-10 22 -5 30 -1 48 24 13 17 26 31 30 31 4 0 15 -22 24 -48 13 -36 25 -51 47
-59 17 -6 30 -10 30 -8 0 2 -13 35 -30 73 -16 39 -30 76 -30 83 0 7 16 31 35
55 19 23 35 44 35 47 0 3 -12 8 -27 12 -23 5 -32 1 -54 -25 l-26 -31 -21 49
c-19 45 -39 61 -74 62 -4 0 8 -34 27 -75z"/>
<path fill="#0920c6" d="M333 1792 c-23 -9 -45 -20 -48 -24 -4 -4 -4 -63 0 -132 l7 -124 27 9
c24 8 26 13 23 53 -3 37 -1 44 17 49 16 4 27 -3 43 -26 12 -18 22 -33 24 -35
5 -7 54 11 54 21 0 5 -11 25 -25 43 -21 28 -22 34 -10 44 8 7 20 30 26 51 24
80 -38 112 -138 71z m85 -64 c3 -21 -3 -30 -27 -42 -43 -23 -48 -20 -53 20 -3
29 0 38 16 45 37 15 61 6 64 -23z"/>
<path fill="#0920c6"  d="M905 1450 c-34 -5 -88 -18 -120 -30 -37 -14 -99 -25 -160 -30 -107
-8 -185 -32 -242 -76 -17 -13 -45 -24 -62 -24 -46 0 -133 -36 -176 -73 l-38
-33 23 -44 c75 -148 259 -369 571 -687 l179 -183 114 0 113 0 194 197 c289
294 476 517 550 656 l32 61 -37 32 c-41 36 -133 74 -178 74 -16 0 -48 13 -72
29 -63 43 -157 72 -235 72 -45 0 -90 8 -139 25 -61 21 -211 47 -247 43 -5 -1
-37 -5 -70 -9z"/>
<path fill="#000000" d="M888 158 c6 -7 17 -39 25 -71 9 -33 18 -61 21 -64 2 -3 33 -2 69 2
l64 7 13 57 c7 31 17 62 22 69 8 9 -14 12 -107 12 -93 0 -115 -3 -107 -12z"/>
<path  fill="#000000" d="M1253 160 c16 -5 35 -17 43 -27 7 -10 14 -13 14 -6 0 17 -40 43 -65
42 -15 0 -13 -3 8 -9z"/>
<path  fill="#000000" d="M1185 131 c-15 -30 -9 -71 14 -85 5 -4 3 7 -5 23 -16 31 -7 65 20 83
8 5 7 8 -1 8 -7 0 -19 -13 -28 -29z"/>
<path fill="#000000" d="M1221 98 c1 -24 3 -35 6 -25 2 9 11 17 18 17 7 0 16 -8 18 -17 2 -10
4 0 3 22 -1 33 -5 41 -23 43 -21 3 -23 0 -22 -40z m39 17 c0 -8 -7 -15 -15
-15 -8 0 -15 7 -15 15 0 8 7 15 15 15 8 0 15 -7 15 -15z"/>
<path fill="#000000" d="M1291 57 c-13 -21 -12 -21 5 -5 10 10 16 20 13 22 -3 3 -11 -5 -18
-17z"/>
</g>
</svg>
