<?xml version="1.0" encoding="UTF-8"?>
<svg id="Capa_1" data-name="Capa 1" xmlns="http://www.w3.org/2000/svg" viewBox="0 0 199.4 200">
  <defs>
    <style>
      .cls-1 {
        fill: #191919;
      }
    </style>
  </defs>
  <path class="cls-1" d="M34.3,149.1s-21.6-1.9-30.2,14.4c0,0,8.1,2.8,12.1,1.9,0,0-16.5,19.7-14.2,34.6,0,0,22.1-1.4,30.9-13,0,0,.9,5.4-.9,10.4,0,0,18.8-7.2,21.1-29.5l-18.8-18.8h0Z"/>
  <path class="cls-1" d="M183.7,.3c-10.1,.2-20.1,1.4-29.7,3.4C106.5,13.7,66.4,44.7,44.6,87.2c0,0,0,0,0,0-10.3-.5-32.2,3-44.6,39.2l31.2-2.3c-.9,3.9-1.7,7.9-2.3,11.9l34.5,34.5c4-.6,8-1.4,11.9-2.3l-2.3,31.2c36.2-12.4,39.7-34.3,39.2-44.6,14.9-7.6,28.4-17.5,40.1-29.2,21.6-21.6,37-49.3,43.4-80.1,2-9.6,3.2-19.6,3.4-29.7l.3-15.7-15.7,.3Zm-39.8,97.4c-11.7,11.7-30.6,11.7-42.2,0-11.7-11.7-11.7-30.6,0-42.2,11.7-11.7,30.6-11.7,42.2,0,11.7,11.7,11.7,30.6,0,42.2Z"/>
</svg>