<?xml version="1.0" encoding="UTF-8"?>
<svg id="Capa_1" data-name="Capa 1" xmlns="http://www.w3.org/2000/svg" viewBox="0 0 217.8 134">
  <defs>
    <style>
      .cls-1 {
        fill: #191919;
      }
    </style>
  </defs>
  <path class="cls-1" d="M65.3,72.2c0-2.5-1-4.9-2.9-6.8-1.8-1.7-4.1-2.7-6.6-2.7s-.2,0-.3,0c-2.6,0-5,1.2-6.7,3.1l-14.6,16c-3.5,3.8-3.3,9.6,.4,13.2,1.9,1.8,4.3,2.8,6.9,2.7,2.6,0,5-1.2,6.7-3.1l3.4-3.7,11.2-12.3c1.7-1.8,2.5-4.1,2.5-6.4h0Z"/>
  <path class="cls-1" d="M80.5,92c3.1-3.6,3-8.9-.5-12.2-1.7-1.6-3.9-2.5-6.2-2.5h-.3c-2.4,0-4.7,1.1-6.3,2.9l-1.1,1.2-11.4,12.4c-3.2,3.6-3.1,9,.4,12.3,1.7,1.7,4,2.6,6.5,2.5,2.4,0,4.7-1.1,6.3-2.9l.3-.4,12.2-13.4h0Z"/>
  <path class="cls-1" d="M99.7,101.1c0-2.4-.9-4.8-2.8-6.6-1.7-1.7-4-2.6-6.4-2.6h-.3c-2.5,0-4.8,1.1-6.5,3l-12.2,13.4c-3.4,3.7-3.2,9.3,.4,12.8,1.8,1.8,4.2,2.7,6.7,2.6,2.5,0,4.8-1.1,6.5-3l2.9-3.1,9.3-10.2c1.6-1.8,2.4-4,2.4-6.2h0Z"/>
  <path class="cls-1" d="M113.6,108.2s0,0,0,0c-1.5-1.5-3.5-2.2-5.6-2.2h-.3c-2.2,0-4.2,1-5.7,2.6l-1.5,1.7-9.3,10.2s0,0,0,0c-2.9,3.2-2.7,8.1,.4,11.2,1.6,1.5,3.7,2.4,5.9,2.3,2.2,0,4.2-1,5.7-2.6l4-4.3s0,0,0,0l6.9-7.5c3-3.2,2.8-8.2-.3-11.2h0Z"/>
  <path class="cls-1" d="M125.1,117.6h0c0,0-4.8-3.9-4.8-3.9,0,3.1-1,6.2-3.2,8.6l-5.2,5.7,4.9,3.4c3.6,2.5,8.7,1.6,11.2-2,1-1.4,1.5-3,1.5-4.6s-.7-3.7-1.9-5.2l-2.4-2.1h0Z"/>
  <path class="cls-1" d="M183.3,76.4h0c-16.3-17.7-36.3-32.4-59.5-43.8-4.7-2.3-10.2-3-15.4-2l-42.7,8.4c-.6,.1-1.3,.2-1.9,.2-4,0-7.6-2.4-9.2-6.2-2.1-5,.2-10.7,5.2-12.9L100.3,2.3c-7.1-2.2-14.6-2.5-22-1l-24,5.1c-1.8,.4-3.7,.6-5.5,.6-4,0-8-.9-11.6-2.6l-6.6-3.2L0,54.1l34.9,20.6,10.8-11.9c2.5-2.8,6-4.4,9.8-4.5,3.8-.1,7.3,1.3,10,3.9,3.2,3.1,4.6,7.3,4.1,11.3,1.2-.4,2.5-.6,3.8-.7,3.6-.1,7,1.2,9.6,3.7,3.2,3.1,4.5,7.4,3.9,11.4,1-.3,2.1-.4,3.2-.5,3.7-.1,7.2,1.2,9.8,3.8,3,2.9,4.4,6.9,4.1,10.8,1.2-.4,2.4-.6,3.6-.7,3.4-.1,6.5,1.1,8.9,3.4l11.3,9.1h.2c0,.1,1.7,1.5,1.7,1.5,0,0,0,0,.1,0,.3,.3,.6,.6,.8,.8l1.7,1.5c3.5,3.3,9,3.1,12.3-.3,3.3-3.5,3.3-9-.2-12.3,0,0,0,0,0,0l-15-14.5c-.9-.8-.9-2.2,0-3,.8-.9,2.2-.9,3,0l15,14.5c0,0,.1,.1,.2,.2l2.1,2c1.9,1.8,4.3,2.7,6.9,2.6,2.6-.1,4.9-1.2,6.7-3.2,3.3-3.7,3.1-9.4-.5-12.9,0,0,0,0,0,0l-15-14.5c-.9-.8-.9-2.2,0-3,.8-.9,2.2-.9,3,0l15,14.5h0c0,0,1.3,1.3,1.3,1.3,4.1,4,10.5,4,14.6,0,3.5-3.4,4.2-8.6,1.8-12.8h0Z"/>
  <path class="cls-1" d="M173.6,7.3c-5.3,2.7-11.4,3.2-17,1.5l-25-7.5c-7.1-2.1-14.7-1.6-21.4,1.4l-3.1,1.4c0,0-.2,0-.3,.1L61.5,24.2c-2.8,1.2-4.1,4.4-2.9,7.3,.9,2.1,2.9,3.5,5.2,3.5s.7,0,1.1-.1l42.7-8.4c6.1-1.2,12.5-.4,18.1,2.3,23.2,11.4,43.4,26.1,59.8,43.7l32.3-17.2L186.4,.8l-12.7,6.4h0Z"/>
</svg>