<?xml version="1.0" encoding="UTF-8"?>
<svg id="Capa_1" data-name="Capa 1" xmlns="http://www.w3.org/2000/svg" viewBox="0 0 199.8 197">
  <defs>
    <style>
      .cls-1 {
        fill: #12100b;
      }
    </style>
  </defs>
  <path class="cls-1" d="M116.3,73.2c0-4.1,3.3-7.4,7.4-7.4s7.4,3.3,7.4,7.4-3.3,7.4-7.4,7.4c-4.1,0-7.4-3.3-7.4-7.4h0ZM92.3,13.7c0-4.1,3.3-7.4,7.4-7.4s7.4,3.3,7.4,7.4-3.3,7.4-7.4,7.4-7.4-3.3-7.4-7.4h0Zm-24,83.6c0-4.1,3.3-7.4,7.4-7.4s7.4,3.3,7.4,7.4-3.3,7.4-7.4,7.4-7.4-3.4-7.4-7.4h0Zm111.6-1.2c0-3.3-.2-6.6-.6-9.8l20.1-9.2-7.9-24.2-21.6,4.3c-3.2-5.8-7.1-11.1-11.6-15.9l10.8-19.3-20.6-15-15,16.2c-5.2-2.4-10.7-4.3-16.5-5.6-1.3,5.4-5,9.9-10.1,12.2v11.7c26.8,3.6,47.5,26.6,47.5,54.4s-9.3,35.1-23.5,45c-1.4,1-2.8,1.9-4.2,2.7v-57.1c6-1.4,10.6-6.9,10.6-13.3s-6.2-13.7-13.7-13.7-13.7,6.1-13.7,13.7,4.5,11.9,10.6,13.3v60.4c-1.4,.6-2.8,1.1-4.2,1.6-3,1-6.1,1.6-9.2,2.1-1.4,.2-2.8,.3-4.2,.4V27c6-1.4,10.6-6.8,10.6-13.3S107.4,0,99.8,0c-7.7,0-13.8,6.1-13.8,13.7s4.5,11.9,10.5,13.3v123.9c-1.4-.1-2.8-.2-4.2-.4-3.2-.4-6.3-1.1-9.2-2.1-1.4-.5-2.9-1-4.2-1.6v-36.3c6-1.4,10.6-6.9,10.6-13.3s-6.2-13.7-13.7-13.7-13.7,6.1-13.7,13.7,4.5,11.9,10.6,13.3v33.2c-1.5-.8-2.9-1.7-4.2-2.7-14.2-9.9-23.5-26.4-23.5-45-.2-27.6,20.5-50.6,47.3-54.3v-11.7c-5.1-2.3-8.8-6.8-10.1-12.2-5.7,1.3-11.2,3.2-16.4,5.6L50.8,7.2l-20.6,15,10.9,19.2c-4.5,4.8-8.3,10.1-11.6,15.9l-21.6-4.4L0,77.1l20.1,9.2c-.4,3.2-.6,6.5-.6,9.8s.2,6.6,.6,9.8L0,115.2l7.9,24.2,21.6-4.4c3.2,5.8,7.1,11.1,11.6,15.9l-10.8,19.3,20.6,15,15-16.2c5.9,2.7,12.1,4.8,18.7,6.1l2.6,21.9h25.4l2.6-21.9c6.5-1.3,12.8-3.3,18.7-6.1l15,16.2,20.6-15-10.8-19.3c4.5-4.8,8.3-10.1,11.6-15.9l21.6,4.4,7.9-24.2-20.1-9.2c0-3.3,.2-6.5,.2-9.9h0Z"/>
</svg>