<?xml version="1.0" encoding="UTF-8"?>
<svg id="Capa_2" data-name="Capa 2" xmlns="http://www.w3.org/2000/svg" viewBox="0 0 25 25">
  <defs>
    <style>
      .cls-1 {
        fill: #fff;
        fill-rule: evenodd;
      }
    </style>
  </defs>
  <path class="cls-1" d="M17.8,6.4v.7h0v9.8c0,2.3-.9,4.6-2.6,6.2-1.7,1.7-3.9,2.6-6.2,2.6s-4.6-.9-6.2-2.6c-1.7-1.7-2.6-3.9-2.6-6.2s.9-4.6,2.6-6.2c1.7-1.7,3.9-2.6,6.2-2.6h1.6v4.6h-1.6c-1.1,0-2.2,.4-3,1.2-.8,.8-1.2,1.8-1.2,3s.4,2.2,1.2,3c.8,.8,1.8,1.2,3,1.2s2.2-.4,3-1.2c.8-.8,1.2-1.8,1.2-2.9V-.7h4.6l.2,.4c.7,1.3,1.7,2.6,2.9,3.5,.9,.7,2,1.2,3.1,1.4h.8c0,.1-.9,4.6-.9,4.6h-.8c-.9-.3-1.9-.6-2.7-1-1-.5-1.9-1.1-2.7-1.9h0Z"/>
</svg>