<?xml version="1.0" encoding="UTF-8"?>
<svg id="Capa_1" data-name="Capa 1" xmlns="http://www.w3.org/2000/svg" viewBox="0 0 200 158.8">
  <defs>
    <style>
      .cls-1 {
        fill: #191919;
      }
    </style>
  </defs>
  <path class="cls-1" d="M189.1,35.7h-44.5V19.1c0-10.6-8.6-19.1-19.1-19.1h-51.1c-10.6,0-19.1,8.6-19.1,19.1v16.5H10.9c-6,0-10.9,4.9-10.9,10.9v101.5c0,6,4.9,10.9,10.9,10.9H189.1c6,0,10.9-4.9,10.9-10.9V46.5c0-6-4.9-10.9-10.9-10.9ZM67.9,19.1c0-3.6,2.9-6.6,6.6-6.6h51.1c3.6,0,6.6,2.9,6.6,6.6v16.5H67.9V19.1Z"/>
</svg>