<?xml version="1.0" encoding="UTF-8"?>
<svg id="Capa_1" data-name="Capa 1" xmlns="http://www.w3.org/2000/svg" viewBox="0 0 24.92 25">
  <defs>
    <style>
      .cls-1 {
        fill: #fff;
      }
    </style>
  </defs>
  <path class="cls-1" d="M12.46,0C5.58,0,0,5.6,0,12.5c0,2.49,.74,4.81,1.99,6.76l-.02-.02-.68,5.15,5.22-.91c1.77,.97,3.79,1.51,5.95,1.51,6.88,0,12.46-5.6,12.46-12.5S19.34,0,12.46,0Zm6.34,17.63l-.63,.77c-.91,1.12-1.68,1.19-2.87,.91-4.55-1.19-7.92-4.41-9.39-8.97-.49-1.75,.21-3.22,1.68-4.13,.77-.49,1.26-.14,1.54,.63l.7,1.82s.49,.98-.77,1.96q-.21,.14-.14,.49c.28,.84,1.4,3.36,4.98,5.33,.35,.21,.42,.21,.77-.07,.28-.28,.63-.63,.91-.91,.63-.56,.98-.77,1.54-.35,.42,.28,.84,.63,1.26,.91,.42,.35,1.12,.77,.42,1.61Z"/>
</svg>