<?xml version="1.0" encoding="UTF-8"?>
<svg id="Capa_1" data-name="Capa 1" xmlns="http://www.w3.org/2000/svg" viewBox="0 0 25 17.7">
  <defs>
    <style>
      .cls-1 {
        fill: #fff;
        fill-rule: evenodd;
      }
    </style>
  </defs>
  <path class="cls-1" d="M24.71,3.89c-.39-2.87-1.85-3.36-4.72-3.6-2.48-.19-5.3-.29-7.49-.29S7.44,.1,5.01,.29C2.14,.53,.63,1.02,.24,3.89c-.15,1.31-.24,3.11-.24,4.96s.1,3.7,.24,4.96c.39,2.92,1.9,3.36,4.77,3.6,2.43,.24,5.3,.29,7.49,.29s5.01-.05,7.49-.29c2.87-.24,4.33-.68,4.72-3.6,.19-1.26,.29-3.11,.29-4.96s-.1-3.65-.29-4.96ZM9.97,12.65V5.11l6.52,3.75-6.52,3.79Z"/>
</svg>